# xmcd
#
# Track frame offsets:
#	150
#	18287
#	36192
#	52730
#	71412
#	87452
#	107930
#	132480
#	146730
#	156745
#	172172
#	187912
#	204917
#	216985
#
# Disc length: 3130 seconds
#
# Revision: 0
# Processed by: cddbd v1.5.1PL0 Copyright (c) Steve Scherf et al.
# Submitted via: dBpowerAMP V4.0
#
DISCID=d00c380e
DTITLE=Bruno Venutrini - Malafemmina
DYEAR=1900
DGENRE=Country
TTITLE0=Malafemmena
TTITLE1=Zappatore
TTITLE2=Passione
TTITLE3=Sciummo (fiume)
TTITLE4=Guapparia
TTITLE5=Carmela ('a Picciotta)
TTITLE6='o zampugnaro 'nnamurato
TTITLE7=Catena
TTITLE8='a Legge
TTITLE9=Cinematografo
TTITLE10=Carcerato
TTITLE11=Mamma Sfurtunata
TTITLE12=Carenvale 'n galera
TTITLE13=Nisciuno
EXTD=
EXTT0=
EXTT1=
EXTT2=
EXTT3=
EXTT4=
EXTT5=
EXTT6=
EXTT7=
EXTT8=
EXTT9=
EXTT10=
EXTT11=
EXTT12=
EXTT13=
PLAYORDER=
